<?xml version="1.0" encoding="UTF-8"?>
<svg version="1.1" xmlns="http://www.w3.org/2000/svg" width="650" height="426">
<path d="M0 0 C214.5 0 429 0 650 0 C650 140.58 650 281.16 650 426 C435.5 426 221 426 0 426 C0 285.42 0 144.84 0 0 Z " fill="#4A4A4A" transform="translate(0,0)"/>
<path d="M0 0 C3.36705711 2.40795599 6.50844212 5.01504177 9.640625 7.71875 C10.55811523 8.49412109 10.55811523 8.49412109 11.49414062 9.28515625 C15.46067114 12.68994028 19.20496597 16.09743194 21.578125 20.84375 C21.70155198 22.54876461 21.75372086 24.2593152 21.765625 25.96875 C21.77980469 26.87882812 21.79398437 27.78890625 21.80859375 28.7265625 C21.32690865 35.24155756 19.28459598 41.14384751 16.640625 47.09375 C16.33906494 47.77284424 16.03750488 48.45193848 15.72680664 49.15161133 C8.02545486 66.08389158 -1.88219016 81.56132283 -12.421875 96.84375 C-11.24431641 96.88568481 -11.24431641 96.88568481 -10.04296875 96.9284668 C-3.39119419 97.29829322 1.0428749 97.92687524 6.578125 101.65625 C7.63 102.34332031 8.681875 103.03039062 9.765625 103.73828125 C16.28619358 108.61965134 16.28619358 108.61965134 17.14453125 112.21875 C17.11851792 129.69970776 5.16711587 143.83957721 -6.421875 155.84375 C-6.91204102 156.35437988 -7.40220703 156.86500977 -7.90722656 157.39111328 C-31.24926875 181.60326856 -31.24926875 181.60326856 -41.671875 182.46875 C-48.17692198 182.18932358 -54.54450917 178.52970309 -59.2421875 174.14453125 C-59.82613281 173.50064453 -59.82613281 173.50064453 -60.421875 172.84375 C-60.091875 171.85375 -59.761875 170.86375 -59.421875 169.84375 C-56.359375 168.65625 -56.359375 168.65625 -53.421875 167.84375 C-53.55762939 166.77979004 -53.69338379 165.71583008 -53.83325195 164.61962891 C-58.47176473 128.11191711 -58.47176473 128.11191711 -60.109375 110.03125 C-60.16970917 109.3719046 -60.23004333 108.7125592 -60.29220581 108.03323364 C-61.09567708 99.04728169 -61.56027583 90.07073788 -61.87109375 81.0546875 C-61.90790756 80.04692764 -61.94472137 79.03916779 -61.98265076 78.00086975 C-62.16340888 73.00809199 -62.31767843 68.0171325 -62.42456055 63.0222168 C-62.48268619 61.2035851 -62.54164579 59.38497982 -62.6015625 57.56640625 C-62.61415352 56.30798416 -62.61415352 56.30798416 -62.6269989 55.0241394 C-62.67326465 52.41761734 -62.67326465 52.41761734 -63.421875 48.84375 C-65.80719864 46.72257799 -65.80719864 46.72257799 -68.421875 45.84375 C-67.97359282 43.22877059 -67.45411056 40.92030944 -66.421875 38.46875 C-65.21242592 35.29394616 -64.87376063 32.20061469 -64.421875 28.84375 C-63.421875 27.84375 -63.421875 27.84375 -60.296875 27.71875 C-55.71444675 26.68400814 -54.60755568 25.33077599 -51.54296875 22 C-43.21623232 13.53525136 -32.8975255 7.27026709 -22.421875 1.84375 C-21.31392578 1.26947266 -21.31392578 1.26947266 -20.18359375 0.68359375 C-14.18261662 -1.98764866 -6.00519808 -2.86699779 0 0 Z " fill="#FCFCFC" transform="translate(196.421875,104.15625)"/>
<path d="M0 0 C10.88619521 4.26860091 21.2179378 9.46229893 26.1015625 20.5078125 C27.37109499 24.02938523 27.90536096 27.29014972 28 31 C28.05027344 32.00546875 28.10054688 33.0109375 28.15234375 34.046875 C29.00448786 64.17869077 12.97049318 97.47127079 -5 121 C-5.91072266 121.77730469 -5.91072266 121.77730469 -6.83984375 122.5703125 C-8.24400672 123.99191508 -8.24400672 123.99191508 -7.98828125 126.30859375 C-6.70063522 129.81526614 -4.6264976 132.30307768 -2.1875 135.0625 C-1.70482666 135.6203418 -1.22215332 136.17818359 -0.72485352 136.75292969 C7.6749149 147.0724804 7.6749149 147.0724804 18 155 C18 155.99 18 156.98 18 158 C15.77155786 158.6483289 13.5422154 159.29356369 11.3125 159.9375 C10.07113281 160.29714844 8.82976562 160.65679687 7.55078125 161.02734375 C5.79314453 161.50880859 5.79314453 161.50880859 4 162 C3.17628906 162.34933594 2.35257812 162.69867188 1.50390625 163.05859375 C-2.28547661 162.96991864 -3.84724801 160.82008706 -6.4296875 158.1953125 C-7.39261719 157.17050781 -7.39261719 157.17050781 -8.375 156.125 C-9.00921875 155.48046875 -9.6434375 154.8359375 -10.296875 154.171875 C-14.971958 149.34413623 -18.8336256 144.35676708 -23 139 C-23 146.92 -23 154.84 -23 163 C-37.07078831 163.14212917 -37.07078831 163.14212917 -41 162 C-42.57906046 158.84187909 -42.36257571 155.40548622 -42.53515625 151.9296875 C-42.57813339 151.13345978 -42.62111053 150.33723206 -42.66539001 149.51687622 C-42.80191326 146.96978498 -42.93227507 144.42242028 -43.0625 141.875 C-43.15389174 140.14971807 -43.24568355 138.42445729 -43.33789062 136.69921875 C-43.56323954 132.46637734 -43.78306253 128.2332805 -44 124 C-44.66 124 -45.32 124 -46 124 C-46.62803021 101.77173938 -47.10386583 79.55045427 -47.125 57.3125 C-47.12749756 56.40463745 -47.12999512 55.4967749 -47.13256836 54.56140137 C-47.15807687 43.33000412 -46.86184842 32.20108464 -46 21 C-45.34 21 -44.68 21 -44 21 C-43.67 25.62 -43.34 30.24 -43 35 C-41.46569767 33.46569767 -41.71424632 31.91542493 -41.53515625 29.78125 C-41.45716797 28.93175781 -41.37917969 28.08226562 -41.29882812 27.20703125 C-41.14130522 25.40267803 -40.98765726 23.59798231 -40.83789062 21.79296875 C-40.71897461 20.51873047 -40.71897461 20.51873047 -40.59765625 19.21875 C-40.53070557 18.43435547 -40.46375488 17.64996094 -40.39477539 16.84179688 C-40.26449951 16.23400391 -40.13422363 15.62621094 -40 15 C-39.34 14.67 -38.68 14.34 -38 14 C-37.67 19.61 -37.34 25.22 -37 31 C-36.62875 27.596875 -36.62875 27.596875 -36.25 24.125 C-35.51946721 17.42844945 -35.51946721 17.42844945 -33.171875 15.4921875 C-31 15 -31 15 -27 16 C-26.67 18.97 -26.34 21.94 -26 25 C-25.72027344 24.38253906 -25.44054687 23.76507813 -25.15234375 23.12890625 C-20.47090599 13.23918083 -12.7070491 -1.38764095 0 0 Z " fill="#FBFBFB" transform="translate(334,107)"/>
<path d="M0 0 C9.67654987 4.67654987 9.67654987 4.67654987 13 8 C13 8.99 13 9.98 13 11 C11.14375 11.4021875 11.14375 11.4021875 9.25 11.8125 C5.84397202 12.64748746 3.73464448 13.77177117 1 16 C0.01 16 -0.98 16 -2 16 C-2 16.99 -2 17.98 -2 19 C-3.32 19 -4.64 19 -6 19 C-6.20625 19.680625 -6.4125 20.36125 -6.625 21.0625 C-7.89074307 23.76658747 -9.03839478 25.31352784 -11 27.5 C-14.42707794 31.3439974 -15.88881549 34.9996697 -17 40 C-17.66 40 -18.32 40 -19 40 C-19.0825 40.804375 -19.165 41.60875 -19.25 42.4375 C-20.05107374 46.24260028 -21.39953148 49.33050321 -23.015625 52.84375 C-25.60549335 58.51679497 -26.48037705 63.84657038 -27 70 C-26.01 69.59007812 -25.02 69.18015625 -24 68.7578125 C-1.49301832 59.52695668 -1.49301832 59.52695668 10.3671875 63.88671875 C31.04366847 72.62974112 31.04366847 72.62974112 35 82 C36.77973998 95.43337982 30.80935517 107.7238897 22.9140625 118.18359375 C11.26676521 132.91724112 -2.06090277 145.73654701 -19 154 C-19.74507813 154.40089844 -20.49015625 154.80179688 -21.2578125 155.21484375 C-28.66458011 158.55287131 -38.71196579 154.36882725 -46 152 C-46.99 151.34 -47.98 150.68 -49 150 C-48.505 148.02 -48.505 148.02 -48 146 C-47.0925 146.144375 -46.185 146.28875 -45.25 146.4375 C-33.95916048 146.41473621 -20.53013082 133.65361524 -12.875 126.1875 C-7.91405761 121.0535929 -3.36245415 115.64840146 1 110 C1.6290625 109.18789062 2.258125 108.37578125 2.90625 107.5390625 C9.15570378 99.06940803 14.90222613 89.85273119 14.30859375 79.0234375 C14.02841677 76.80261104 14.02841677 76.80261104 13 74 C5.94543445 74.74659549 -0.05721295 76.73954481 -6.5 79.5625 C-19.15923156 84.94961272 -28.37494765 84.46375198 -41.25732422 79.80322266 C-43.76293405 78.64835346 -45.32131699 77.16672118 -47 75 C-51.71903124 60.84290628 -44.34510708 45.25266699 -38.1875 32.625 C-32.04017161 20.55983164 -16.25966684 -5.70514626 0 0 Z " fill="#FBFBFB" transform="translate(489,114)"/>
<path d="M0 0 C2.73130293 0.25596554 5.45901464 0.52916587 8.1875 0.8125 C8.95642578 0.88275391 9.72535156 0.95300781 10.51757812 1.02539062 C11.26845703 1.10595703 12.01933594 1.18652344 12.79296875 1.26953125 C13.4789917 1.33760986 14.16501465 1.40568848 14.87182617 1.47583008 C17.75075151 2.18491035 19.62898285 3.20756102 22 5 C22.62361908 7.53437138 22.62361908 7.53437138 22.62145996 10.62428284 C22.63266876 11.79508392 22.64387756 12.96588501 22.65542603 14.17216492 C22.64216278 15.45798965 22.62889954 16.74381439 22.61523438 18.06860352 C22.61873495 19.43524871 22.62439281 20.80188984 22.63204956 22.16851807 C22.64631564 25.88143607 22.62922001 29.59361514 22.60576439 33.30646253 C22.58568484 37.18794331 22.59153335 41.06939254 22.59387207 44.95091248 C22.59381847 51.46861999 22.57404517 57.98603784 22.54199219 64.50366211 C22.50508265 72.04561551 22.4963184 79.58718957 22.5032897 87.1292215 C22.50958799 94.37745397 22.49885398 101.62555597 22.47932434 108.87376213 C22.47113641 111.96186108 22.46844333 115.04989349 22.47001648 118.1380024 C22.47089342 121.77177558 22.45673141 125.40518649 22.43078995 129.03886414 C22.42017516 131.01366889 22.42430861 132.98853548 22.42880249 134.96336365 C22.4174527 136.13134491 22.40610291 137.29932617 22.39440918 138.50270081 C22.39068047 139.52199456 22.38695175 140.54128832 22.38311005 141.59146976 C22.25668373 142.38628474 22.13025742 143.18109972 22 144 C19.12656563 145.91562291 18.22496459 146.29210899 14.98828125 146.6328125 C14.23095703 146.71660156 13.47363281 146.80039062 12.69335938 146.88671875 C11.90767578 146.96535156 11.12199219 147.04398438 10.3125 147.125 C9.51521484 147.21136719 8.71792969 147.29773438 7.89648438 147.38671875 C5.93176674 147.59848472 3.96597204 147.80021473 2 148 C2 146.35 2 144.7 2 143 C1.34 143 0.68 143 0 143 C-0.91255853 129.84937971 -1.13323084 116.69904554 -1.17724609 103.52096558 C-1.18404686 101.68316065 -1.19426491 99.845365 -1.20800781 98.00759888 C-1.22610922 95.37476755 -1.2301695 92.74226198 -1.23046875 90.109375 C-1.23761398 89.32551926 -1.24475922 88.54166351 -1.25212097 87.73405457 C-1.23008041 82.26788591 -0.37675083 77.28547859 1 72 C1.33 72 1.66 72 2 72 C2 78.27 2 84.54 2 91 C2.99 90.505 2.99 90.505 4 90 C4.39259593 87.21533348 4.39259593 87.21533348 4.5 84 C4.65625 80.6875 4.65625 80.6875 5 78 C5.99 77.505 5.99 77.505 7 77 C7.33 78.98 7.66 80.96 8 83 C8.99 83 9.98 83 11 83 C11.33 64.19 11.66 45.38 12 26 C11.34 26 10.68 26 10 26 C9.67 25.01 9.34 24.02 9 23 C8.34 24.32 7.68 25.64 7 27 C6.34 26.34 5.68 25.68 5 25 C4.67 25 4.34 25 4 25 C3.34 28.63 2.68 32.26 2 36 C1.01 36 0.02 36 -1 36 C-1.024759 31.51595436 -1.04288799 27.03194519 -1.05493164 22.54785156 C-1.05995365 21.02310493 -1.0667725 19.49836309 -1.07543945 17.97363281 C-1.08759849 15.77928481 -1.09324968 13.5850006 -1.09765625 11.390625 C-1.10289307 10.07094727 -1.10812988 8.75126953 -1.11352539 7.39160156 C-1.02311329 4.69051582 -0.81881355 2.5499384 0 0 Z " fill="#FBFBFB" transform="translate(242,122)"/>
<path d="M0 0 C-0.60016716 5.28480525 -2.32590976 9.58497328 -4.5 14.375 C-4.85892334 15.1688208 -5.21784668 15.9626416 -5.58764648 16.78051758 C-14.28759199 35.68975585 -25.55024483 55.09836272 -39 71 C-39.33 71 -39.66 71 -40 71 C-41.95352761 61.82015807 -42.33211407 52.3442189 -43 43 C-43.06703125 42.13439453 -43.1340625 41.26878906 -43.203125 40.37695312 C-44.06911156 28.16457446 -44.06911156 28.16457446 -41.890625 23.75390625 C-40.08199107 21.81544464 -38.19806742 20.48478727 -36 19 C-35.07703125 18.2265625 -34.1540625 17.453125 -33.203125 16.65625 C-25.16735327 9.93677039 -16.47360944 5.37683042 -7 1 C-4.53721199 -0.231394 -2.7204945 -0.07159196 0 0 Z " fill="#474747" transform="translate(199,121)"/>
<path d="M0 0 C0.66 0 1.32 0 2 0 C9.12893945 24.26139069 -5.70045264 54.34631822 -16.94970703 75.09082031 C-20.24986951 81.08972097 -23.58944191 87.06310259 -27 93 C-27.66 93 -28.32 93 -29 93 C-28.16768794 61.99637559 -21.7547854 23.68695384 0 0 Z " fill="#515151" transform="translate(339,124)"/>
<path d="M0 0 C4.8046875 -0.1796875 4.8046875 -0.1796875 6.5625 1.4375 C7.036875 1.953125 7.51125 2.46875 8 3 C10.05000871 3.80528889 10.05000871 3.80528889 12 4 C12.33 3.67 12.66 3.34 13 3 C16 2.875 16 2.875 19 3 C20 4 20 4 20.1875 7.75 C19.96164616 19.66379002 17.84510571 33.15489429 9 42 C5.91796875 41.828125 5.91796875 41.828125 2.1875 41.25 C0.96417969 41.06953125 -0.25914062 40.8890625 -1.51953125 40.703125 C-4.57841467 40.08516875 -7.16418132 39.27476802 -10 38 C-9.7215625 37.30648437 -9.443125 36.61296875 -9.15625 35.8984375 C-4.29323949 23.70805305 -0.75273983 13.17294696 0 0 Z " fill="#FAFAFA" transform="translate(396,111)"/>
<path d="M0 0 C0.66 0.99 1.32 1.98 2 3 C2.66 2.01 3.32 1.02 4 0 C4.66 0 5.32 0 6 0 C4.49769707 10.01535287 -0.19679568 19.37909936 -8 26 C-8 25.01 -8 24.02 -8 23 C-8.7425 23.94875 -9.485 24.8975 -10.25 25.875 C-11.72189817 27.75575878 -12.70635629 28.86320945 -14.88671875 29.87890625 C-17.79054732 31.41938462 -19.44100406 33.56767821 -21.5625 36.0625 C-25.66955941 40.88985314 -25.66955941 40.88985314 -29 42 C-29.87505177 38.17281629 -30.18632495 34.52649091 -30.31640625 30.60546875 C-30.35830078 29.40341797 -30.40019531 28.20136719 -30.44335938 26.96289062 C-30.48267578 25.71701172 -30.52199219 24.47113281 -30.5625 23.1875 C-30.62727539 21.28967773 -30.62727539 21.28967773 -30.69335938 19.35351562 C-30.7992447 16.23578111 -30.90132405 13.11796965 -31 10 C-30.10345703 10.20214111 -29.20691406 10.40428223 -28.28320312 10.61254883 C-24.78835216 11.02497659 -23.53582797 10.75963209 -20.46875 9.19921875 C-19.65792969 8.79896484 -18.84710938 8.39871094 -18.01171875 7.98632812 C-17.18285156 7.55771484 -16.35398438 7.12910156 -15.5 6.6875 C-13.84529269 5.85499951 -12.18907408 5.02549514 -10.53125 4.19921875 C-9.75523437 3.81169434 -8.97921875 3.42416992 -8.1796875 3.02490234 C-5.51988114 1.77424519 -2.81830743 0.82810657 0 0 Z " fill="#484848" transform="translate(193,214)"/>
<path d="M0 0 C0.66 0.33 1.32 0.66 2 1 C0.68 3.31 -0.64 5.62 -2 8 C-3.32 8 -4.64 8 -6 8 C-6.2475 8.70125 -6.495 9.4025 -6.75 10.125 C-8.16088026 13.37002459 -9.97895398 16.10316737 -12 19 C-8.73539027 17.19587357 -7.11070205 16.16605307 -5 13 C-4.34 13.33 -3.68 13.66 -3 14 C-4.41602051 16.20874995 -5.83279806 18.41700826 -7.25 20.625 C-7.64574219 21.24246094 -8.04148438 21.85992187 -8.44921875 22.49609375 C-9.62889268 24.33329086 -10.81369933 26.16707634 -12 28 C-12.38091797 28.59393555 -12.76183594 29.18787109 -13.15429688 29.79980469 C-14.07615491 31.21759901 -15.03449892 32.61155819 -16 34 C-16.33 34 -16.66 34 -17 34 C-18.35209829 27.9155577 -20.14430158 19.49102758 -16.71875 13.9140625 C-14.91253214 12.09963456 -13.02877445 10.56059573 -11 9 C-9.55920049 7.69112289 -8.12164639 6.3786636 -6.6875 5.0625 C-3.26153846 2 -3.26153846 2 -1 2 C-0.67 1.34 -0.34 0.68 0 0 Z " fill="#4D4D4D" transform="translate(178,178)"/>
<path d="M0 0 C2.60704898 2.60704898 2.23905333 4.47338241 2.265625 8.02734375 C2 10 2 10 0 13 C-6.97674419 13.7751938 -6.97674419 13.7751938 -10.0625 11.4375 C-11.40411569 7.9492992 -10.92678615 5.57474656 -10 2 C-6.32653229 -0.44897847 -4.33643601 -0.31537716 0 0 Z " fill="#F1F1F1" transform="translate(347,303)"/>
<path d="M0 0 C2.64 0 5.28 0 8 0 C9.4617773 4.3853319 10.44935236 7.52018362 9 12 C8 13 8 13 6.15234375 13.09765625 C4.1015625 13.06510417 2.05078125 13.03255208 0 13 C0 8.71 0 4.42 0 0 Z " fill="#E5E5E5" transform="translate(427,303)"/>
<path d="M0 0 C1.32 0 2.64 0 4 0 C5.75 2.5 5.75 2.5 7 5 C7.33 3.35 7.66 1.7 8 0 C9.32 0 10.64 0 12 0 C12 4.29 12 8.58 12 13 C7 12 7 12 5.1875 9.4375 C4.795625 8.633125 4.40375 7.82875 4 7 C3.67 8.98 3.34 10.96 3 13 C2.01 13 1.02 13 0 13 C0 8.71 0 4.42 0 0 Z " fill="#EEEEEE" transform="translate(389,303)"/>
<path d="M0 0 C6.93359375 -0.09765625 6.93359375 -0.09765625 9 0 C10 1 10 1 10.125 3.3125 C10.01347319 5.71032638 9.67883108 7.70894512 9 10 C9.66 10 10.32 10 11 10 C11 10.99 11 11.98 11 13 C7.20411134 12.45773019 5.52788007 10.79872437 3 8 C3 9.65 3 11.3 3 13 C2.01 13 1.02 13 0 13 C0 8.71 0 4.42 0 0 Z " fill="#EAEAEA" transform="translate(221,303)"/>
<path d="M0 0 C5 1 5 1 6.8125 3.5625 C7.204375 4.366875 7.59625 5.17125 8 6 C8.33 4.02 8.66 2.04 9 0 C9.99 0 10.98 0 12 0 C12 4.29 12 8.58 12 13 C8 12 8 12 5.75 8.9375 C4.88375 7.4834375 4.88375 7.4834375 4 6 C3.67 8.31 3.34 10.62 3 13 C2.01 13 1.02 13 0 13 C0 8.71 0 4.42 0 0 Z " fill="#F5F5F5" transform="translate(256,303)"/>
<path d="M0 0 C1.32 0 2.64 0 4 0 C4 1.65 4 3.3 4 5 C5.65 5 7.3 5 9 5 C9 3.35 9 1.7 9 0 C9.99 0 10.98 0 12 0 C12 4.29 12 8.58 12 13 C11.01 13 10.02 13 9 13 C9 11.35 9 9.7 9 8 C7.35 8 5.7 8 4 8 C4 9.65 4 11.3 4 13 C2.68 13 1.36 13 0 13 C0 8.71 0 4.42 0 0 Z " fill="#F1F1F1" transform="translate(320,303)"/>
<path d="M0 0 C6.93359375 -0.09765625 6.93359375 -0.09765625 9 0 C10 1 10 1 10.0625 4.5625 C10.041875 5.696875 10.02125 6.83125 10 8 C8.02 8.33 6.04 8.66 4 9 C4 10.32 4 11.64 4 13 C2.68 13 1.36 13 0 13 C0 8.71 0 4.42 0 0 Z " fill="#DFDFDF" transform="translate(353,303)"/>
<path d="M0 0 C1.9453125 -0.29296875 1.9453125 -0.29296875 4.125 -0.1875 C5.40375 -0.125625 6.6825 -0.06375 8 0 C8.33 1.32 8.66 2.64 9 4 C8.030625 3.814375 7.06125 3.62875 6.0625 3.4375 C5.051875 3.293125 4.04125 3.14875 3 3 C1.70366379 4.06645115 1.70366379 4.06645115 1.9375 6.5625 C1.958125 7.366875 1.97875 8.17125 2 9 C2.66 9 3.32 9 4 9 C4 8.01 4 7.02 4 6 C5.98 6 7.96 6 10 6 C10 8.31 10 10.62 10 13 C8.37581255 13.08090971 6.75048255 13.13914995 5.125 13.1875 C3.76761719 13.23970703 3.76761719 13.23970703 2.3828125 13.29296875 C1.20332031 13.14794922 1.20332031 13.14794922 0 13 C-2.45811625 9.31282562 -2.31118164 7.35654296 -2 3 C-1.34 2.01 -0.68 1.02 0 0 Z " fill="#F4F4F4" transform="translate(407,303)"/>
<path d="M0 0 C6.93359375 -0.09765625 6.93359375 -0.09765625 9 0 C10 1 10 1 10.1875 3.9375 C10 7 10 7 8 9 C6.68 9 5.36 9 4 9 C4 10.32 4 11.64 4 13 C2.68 13 1.36 13 0 13 C0 8.71 0 4.42 0 0 Z " fill="#E0E0E0" transform="translate(194,303)"/>
<path d="M0 0 C6.0546875 -0.1953125 6.0546875 -0.1953125 8 0 C10 2 10 2 10.25 4.5 C10 7 10 7 8 9 C6.68 9 5.36 9 4 9 C4 10.32 4 11.64 4 13 C2.68 13 1.36 13 0 13 C0 8.71 0 4.42 0 0 Z " fill="#E4E4E4" transform="translate(367,303)"/>
<path d="M0 0 C1.134375 0.020625 2.26875 0.04125 3.4375 0.0625 C3.7675 1.3825 4.0975 2.7025 4.4375 4.0625 C2.7875 4.0625 1.1375 4.0625 -0.5625 4.0625 C1.4175 5.0525 3.3975 6.0425 5.4375 7.0625 C4.5625 11.9375 4.5625 11.9375 3.4375 13.0625 C1.10452567 13.10342937 -1.22955225 13.10491723 -3.5625 13.0625 C-4.2225 11.7425 -4.8825 10.4225 -5.5625 9.0625 C-3.5825 9.0625 -1.6025 9.0625 0.4375 9.0625 C-0.3875 8.670625 -1.2125 8.27875 -2.0625 7.875 C-2.8875 7.276875 -3.7125 6.67875 -4.5625 6.0625 C-4.9375 3.4375 -4.9375 3.4375 -4.5625 1.0625 C-3.5625 0.0625 -3.5625 0.0625 0 0 Z " fill="#EAEAEA" transform="translate(465.5625,302.9375)"/>
<path d="M0 0 C1.134375 0.020625 2.26875 0.04125 3.4375 0.0625 C3.7675 1.0525 4.0975 2.0425 4.4375 3.0625 C3.4475 3.3925 2.4575 3.7225 1.4375 4.0625 C0.4475 3.4025 -0.5425 2.7425 -1.5625 2.0625 C-0.67960613 4.32179199 -0.67960613 4.32179199 2 5.375 C2.804375 5.931875 3.60875 6.48875 4.4375 7.0625 C4.8125 9.6875 4.8125 9.6875 4.4375 12.0625 C3.4375 13.0625 3.4375 13.0625 1.58984375 13.16015625 C-0.4609375 13.12760417 -2.51171875 13.09505208 -4.5625 13.0625 C-4.8925 11.7425 -5.2225 10.4225 -5.5625 9.0625 C-3.5825 9.0625 -1.6025 9.0625 0.4375 9.0625 C-1.5425 8.0725 -3.5225 7.0825 -5.5625 6.0625 C-4.48849278 0.07874549 -4.48849278 0.07874549 0 0 Z " fill="#EDEDED" transform="translate(479.5625,302.9375)"/>
<path d="M0 0 C1.670625 0.061875 1.670625 0.061875 3.375 0.125 C3.705 1.115 4.035 2.105 4.375 3.125 C3.385 3.455 2.395 3.785 1.375 4.125 C0.385 3.465 -0.605 2.805 -1.625 2.125 C-0.74210613 4.38429199 -0.74210613 4.38429199 1.9375 5.4375 C2.741875 5.994375 3.54625 6.55125 4.375 7.125 C4.75 9.75 4.75 9.75 4.375 12.125 C3.375 13.125 3.375 13.125 1.52734375 13.22265625 C-0.5234375 13.19010417 -2.57421875 13.15755208 -4.625 13.125 C-4.955 11.805 -5.285 10.485 -5.625 9.125 C-3.645 9.125 -1.665 9.125 0.375 9.125 C-0.429375 8.898125 -1.23375 8.67125 -2.0625 8.4375 C-4.625 7.125 -4.625 7.125 -5.5625 4.625 C-5.583125 3.8 -5.60375 2.975 -5.625 2.125 C-3.625 0.125 -3.625 0.125 0 0 Z " fill="#EEEEEE" transform="translate(311.625,302.875)"/>
<path d="M0 0 C2.97 0 5.94 0 9 0 C9 0.99 9 1.98 9 3 C7.35 3 5.7 3 4 3 C4 3.66 4 4.32 4 5 C5.32 5 6.64 5 8 5 C8 5.99 8 6.98 8 8 C6.68 8 5.36 8 4 8 C4 8.66 4 9.32 4 10 C5.65 10 7.3 10 9 10 C9 10.99 9 11.98 9 13 C6.03 13 3.06 13 0 13 C0 8.71 0 4.42 0 0 Z " fill="#EEEEEE" transform="translate(243,303)"/>
<path d="M0 0 C2.97 0 5.94 0 9 0 C9 0.99 9 1.98 9 3 C7.02 3 5.04 3 3 3 C3 3.66 3 4.32 3 5 C4.65 5 6.3 5 8 5 C8 5.99 8 6.98 8 8 C6.68 8 5.36 8 4 8 C4 8.66 4 9.32 4 10 C5.65 10 7.3 10 9 10 C9 10.99 9 11.98 9 13 C6.03 13 3.06 13 0 13 C0 8.71 0 4.42 0 0 Z " fill="#F1F1F1" transform="translate(208,303)"/>
<path d="M0 0 C2.97 0 5.94 0 9 0 C9 0.99 9 1.98 9 3 C7.02 3 5.04 3 3 3 C3 3.66 3 4.32 3 5 C4.65 5 6.3 5 8 5 C8 5.99 8 6.98 8 8 C6.35 8 4.7 8 3 8 C3 8.66 3 9.32 3 10 C4.98 10 6.96 10 9 10 C9 10.99 9 11.98 9 13 C6.03 13 3.06 13 0 13 C0 8.71 0 4.42 0 0 Z " fill="#F3F3F3" transform="translate(288,303)"/>
<path d="M0 0 C0.66 0.33 1.32 0.66 2 1 C2 1.99 2 2.98 2 4 C-0.31 3.67 -2.62 3.34 -5 3 C-5.33 5.31 -5.66 7.62 -6 10 C-3.36 9.67 -0.72 9.34 2 9 C1.34 10.32 0.68 11.64 0 13 C-6.42210386 13.48468708 -6.42210386 13.48468708 -8.9375 11.375 C-10.295454 8.33957342 -10.42030443 6.29238472 -10 3 C-7.71408547 -1.03396681 -4.21784476 -0.30675235 0 0 Z " fill="#F0F0F0" transform="translate(282,303)"/>
<path d="M0 0 C1.32 0 2.64 0 4 0 C4.66 0.66 5.32 1.32 6 2 C6.33 1.34 6.66 0.68 7 0 C8.32 0.33 9.64 0.66 11 1 C10.443125 1.86625 9.88625 2.7325 9.3125 3.625 C7.5625 7 7.5625 7 9.3125 10.375 C9.869375 11.24125 10.42625 12.1075 11 13 C9.35 12.67 7.7 12.34 6 12 C6 11.34 6 10.68 6 10 C5.34 10 4.68 10 4 10 C3.67 10.99 3.34 11.98 3 13 C2.01 13 1.02 13 0 13 C0.350625 12.278125 0.70125 11.55625 1.0625 10.8125 C2.44033573 6.67899282 1.34260173 4.0278052 0 0 Z " fill="#F4F4F4" transform="translate(180,303)"/>
<path d="M0 0 C2.64 0 5.28 0 8 0 C8 0.99 8 1.98 8 3 C6.35 3 4.7 3 3 3 C3 3.66 3 4.32 3 5 C4.32 5 5.64 5 7 5 C7 5.99 7 6.98 7 8 C5.68 8 4.36 8 3 8 C3 8.66 3 9.32 3 10 C4.98 10 6.96 10 9 10 C9 10.99 9 11.98 9 13 C6.03 13 3.06 13 0 13 C0 8.71 0 4.42 0 0 Z " fill="#F4F4F4" transform="translate(168,303)"/>
<path d="M0 0 C0.99 0.33 1.98 0.66 3 1 C1.32497468 6.86258862 -0.83212798 11.55475199 -6 15 C-7.5625 13.3125 -7.5625 13.3125 -9 11 C-8.6875 8.25 -8.6875 8.25 -8 6 C-7.13375 5.9071875 -7.13375 5.9071875 -6.25 5.8125 C-3.11309013 4.67972699 -1.90832496 2.65802405 0 0 Z " fill="#555555" transform="translate(324,211)"/>
<path d="M0 0 C2 3.75 2 3.75 2 6 C2.66 6 3.32 6 4 6 C3.88541307 7.43836751 3.75790884 8.87570966 3.625 10.3125 C3.55539063 11.11300781 3.48578125 11.91351563 3.4140625 12.73828125 C3 15 3 15 1 18 C0.34 18 -0.32 18 -1 18 C-1.99 18.33 -2.98 18.66 -4 19 C-4 17.35 -4 15.7 -4 14 C-3.34 13.67 -2.68 13.34 -2 13 C-1.56893307 10.21663762 -1.56893307 10.21663762 -1.4375 7 C-1.09637046 1.09637046 -1.09637046 1.09637046 0 0 Z " fill="#D1D1D1" transform="translate(248,199)"/>
<path d="M0 0 C1.32 0 2.64 0 4 0 C4 3.3 4 6.6 4 10 C5.65 10 7.3 10 9 10 C9 10.99 9 11.98 9 13 C6.03 13 3.06 13 0 13 C0 8.71 0 4.42 0 0 Z " fill="#E8E8E8" transform="translate(441,303)"/>
<path d="M0 0 C1.32 0 2.64 0 4 0 C4 4.29 4 8.58 4 13 C2.68 13 1.36 13 0 13 C0 8.71 0 4.42 0 0 Z " fill="#E3E3E3" transform="translate(453,303)"/>
<path d="M0 0 C1.32 0 2.64 0 4 0 C4 4.29 4 8.58 4 13 C2.68 13 1.36 13 0 13 C0 8.71 0 4.42 0 0 Z " fill="#E1E1E1" transform="translate(235,303)"/>
<path d="M0 0 C0.99 0.33 1.98 0.66 3 1 C2.01 1.66 1.02 2.32 0 3 C0 2.01 0 1.02 0 0 Z M-4 3 C-2.68 3 -1.36 3 0 3 C-0.75 4.9375 -0.75 4.9375 -2 7 C-4.125 7.75 -4.125 7.75 -6 8 C-5.34 6.35 -4.68 4.7 -4 3 Z M-7 8 C-6.34 8.66 -5.68 9.32 -5 10 C-6.98 12.97 -6.98 12.97 -9 16 C-10.32 15.67 -11.64 15.34 -13 15 C-11.02 12.69 -9.04 10.38 -7 8 Z " fill="#7A7A7A" transform="translate(487,130)"/>
<path d="M0 0 C4.42494186 6.6374128 3.11760351 16.27736921 3 24 C2.34 24 1.68 24 1 24 C-0.12513633 15.98340366 -0.09579384 8.07861415 0 0 Z " fill="#696969" transform="translate(294,234)"/>
<path d="M0 0 C1.32 0.66 2.64 1.32 4 2 C4 3.65 4 5.3 4 7 C2.02 7.99 2.02 7.99 0 9 C-2 7 -2 7 -2.25 4.5 C-2 2 -2 2 0 0 Z " fill="#565656" transform="translate(342,305)"/>
<path d="M0 0 C0.66 0.33 1.32 0.66 2 1 C0.98438819 2.68267046 -0.06358191 4.34584195 -1.125 6 C-1.70507812 6.928125 -2.28515625 7.85625 -2.8828125 8.8125 C-5 11 -5 11 -8.2421875 11.3125 C-9.60730469 11.1578125 -9.60730469 11.1578125 -11 11 C-9.51182931 6.68430499 -6.94355538 5.93153733 -3 4 C-1.14684743 1.95053601 -1.14684743 1.95053601 0 0 Z " fill="#767676" transform="translate(173,191)"/>
<path d="M0 0 C0.99 0 1.98 0 3 0 C3 4.29 3 8.58 3 13 C2.01 13 1.02 13 0 13 C0 8.71 0 4.42 0 0 Z " fill="#FFFFFF" transform="translate(381,303)"/>
<path d="M0 0 C0.33 0 0.66 0 1 0 C1 9.9 1 19.8 1 30 C1.66 30 2.32 30 3 30 C2.67 30.99 2.34 31.98 2 33 C1.34 32.67 0.68 32.34 0 32 C0 21.44 0 10.88 0 0 Z " fill="#D4D4D4" transform="translate(241,126)"/>
<path d="M0 0 C2.475 0.99 2.475 0.99 5 2 C4.67 2.66 4.34 3.32 4 4 C3.01 4 2.02 4 1 4 C1 4.99 1 5.98 1 7 C1.99 7.33 2.98 7.66 4 8 C2.125 8.625 2.125 8.625 0 9 C-2 7 -2 7 -2.25 4.5 C-2 2 -2 2 0 0 Z " fill="#5F5F5F" transform="translate(410,305)"/>
<path d="M0 0 C0.33 0.66 0.66 1.32 1 2 C0.0625 4.625 0.0625 4.625 -1 7 C-2.32 7 -3.64 7 -5 7 C-3.47793991 4.37098712 -2.15634036 2.15634036 0 0 Z M-7 6 C-6.34 6.66 -5.68 7.32 -5 8 C-6.98 9.32 -8.96 10.64 -11 12 C-9.84826645 9.53199953 -8.95216435 7.95216435 -7 6 Z " fill="#E9E9E9" transform="translate(185,236)"/>
<path d="M0 0 C0.33 0 0.66 0 1 0 C1.02721176 1.89575251 1.04649136 3.79161979 1.0625 5.6875 C1.07410156 6.74324219 1.08570313 7.79898438 1.09765625 8.88671875 C1.00865425 11.72410262 0.64939838 14.2438919 0 17 C-0.33 17 -0.66 17 -1 17 C-1 15.35 -1 13.7 -1 12 C-1.66 12 -2.32 12 -3 12 C-3.33 10.35 -3.66 8.7 -4 7 C-3.01 6.67 -2.02 6.34 -1 6 C-0.67 4.02 -0.34 2.04 0 0 Z " fill="#6A6A6A" transform="translate(253,193)"/>
<path d="M0 0 C0.66 0.33 1.32 0.66 2 1 C0.68 3.31 -0.64 5.62 -2 8 C-3.65 7.67 -5.3 7.34 -7 7 C-4.66666667 4.66666667 -2.33333333 2.33333333 0 0 Z " fill="#595959" transform="translate(178,178)"/>
<path d="M0 0 C0.33 0 0.66 0 1 0 C0.88541307 1.43836751 0.75790884 2.87570966 0.625 4.3125 C0.55539063 5.11300781 0.48578125 5.91351563 0.4140625 6.73828125 C0 9 0 9 -2 12 C-3.40457737 9.19084526 -3.24895157 7.11189466 -3 4 C-1.5625 1.625 -1.5625 1.625 0 0 Z " fill="#BEBEBE" transform="translate(251,205)"/>
<path d="M0 0 C0.99 0.33 1.98 0.66 3 1 C2.01 1.66 1.02 2.32 0 3 C0 2.01 0 1.02 0 0 Z M-4 3 C-2.68 3 -1.36 3 0 3 C-0.8125 4.9375 -0.8125 4.9375 -2 7 C-2.99 7.33 -3.98 7.66 -5 8 C-5 5 -5 5 -4 3 Z " fill="#6D6D6D" transform="translate(487,130)"/>
</svg>
